<!-- Generated by IcoMoon.io -->
<svg version="1.1" xmlns="http://www.w3.org/2000/svg" width="1024" height="1024" viewBox="0 0 1024 1024">
<path fill="#b2954c" d="M942.958 529.334c-13.056-7.123-27.019-14.715-44.895-20.478-1.705-246.16-202.455-445.906-449.011-445.906-247.608 0-449.053 201.445-449.053 449.053s201.445 449.047 449.053 449.047v-61.804c-213.533 0-387.249-173.716-387.249-387.243s173.716-387.249 387.249-387.249c209.33 0 380.28 166.984 386.929 374.728-1.236-0.015-2.41-0.067-3.672-0.067-55.804 0-84.939 15.889-110.645 29.913-22.909 12.495-41.007 22.363-81.046 22.363-40.013 0-58.091-9.868-80.984-22.363-25.69-14.019-54.81-29.913-110.583-29.913v61.804c40.008 0 58.085 9.868 80.979 22.363 25.69 14.019 54.81 29.913 110.588 29.913 55.799 0 84.934-15.889 110.64-29.908 22.909-12.5 41.007-22.368 81.051-22.368s58.142 9.868 81.051 22.368c25.705 14.019 54.841 29.908 110.64 29.908v-61.804c-40.039 0.005-58.132-9.863-81.041-22.358z"></path>
<path fill="#b2954c" d="M832.309 658.623c-55.804 0-84.939 15.889-110.645 29.913-22.909 12.495-41.007 22.363-81.046 22.363-40.013 0-58.091-9.868-80.984-22.363-25.69-14.019-54.81-29.913-110.583-29.913v61.804c40.008 0 58.085 9.868 80.979 22.363 25.69 14.019 54.81 29.913 110.588 29.913 55.799 0 84.934-15.889 110.64-29.908 22.909-12.5 41.007-22.368 81.051-22.368s58.142 9.868 81.051 22.368c25.705 14.019 54.841 29.908 110.64 29.908v-61.804c-40.039 0-58.137-9.868-81.046-22.363-25.705-14.030-54.841-29.913-110.645-29.913z"></path>
</svg>